<?xml version="1.0" encoding="UTF-8"?>
<svg xmlns="http://www.w3.org/2000/svg" version="1.1" viewBox="0 0 1080 1080">
  <defs>
    <style>
      .cls-1 {
        fill-rule: evenodd;
      }

      .cls-1, .cls-2, .cls-3, .cls-4 {
        fill: #fff;
      }

      .cls-5 {
        fill: #2196f3;
      }

      .cls-5, .cls-6 {
        display: none;
      }

      .cls-2, .cls-4, .cls-7 {
        stroke-miterlimit: 10;
      }

      .cls-2, .cls-7 {
        stroke: #0a58ca;
      }

      .cls-8, .cls-7 {
        fill: #0a58ca;
      }

      .cls-4 {
        stroke: #fff;
      }

      .cls-7 {
        stroke-width: 3px;
      }
    </style>
  </defs>
  <!-- Generator: Adobe Illustrator 28.6.0, SVG Export Plug-In . SVG Version: 1.2.0 Build 709)  -->
  <g>
    <g id="Layer_1">
      <rect class="cls-5" width="1078.7" height="1078.7" rx="66" ry="66"/>
      <rect class="cls-8" width="1078.7" height="1078.7" rx="66" ry="66"/>
      <rect class="cls-5" width="1078.7" height="1078.7" rx="66" ry="66"/>
    </g>
    <g id="a2b" class="cls-6">
      <g>
        <path class="cls-3" d="M463.8,268.4c0-78.1-63.3-141.4-141.4-141.4-77.7,0-141.3,65-141.3,142.7v.3c0,21.2,4.9,42.1,14.4,61l.8,1.5c25,50.1,60.6,94.1,104.3,129.1l12.5,10c5.7,4.6,13.8,4.6,19.5,0l12.5-10c43.7-35,79.3-79,104.3-129.1h0c10-19.9,14.9-42,14.4-64.2ZM322.4,327.8c-36.3,0-65.7-29.4-65.7-65.7s29.4-65.7,65.7-65.7,65.7,29.4,65.7,65.7-29.4,65.7-65.7,65.7Z"/>
        <path class="cls-3" d="M898.7,746.6c0-78.2-63.4-141.5-141.6-141.5-77.8,0-141.4,65.1-141.4,142.8v.3c0,21.2,4.9,42.1,14.4,61.1l.8,1.5c25.1,50.1,60.7,94.2,104.4,129.2l12.5,10c5.7,4.6,13.8,4.6,19.5,0l12.5-10c43.7-35,79.4-79.1,104.4-129.2h0c10-19.9,14.9-42,14.4-64.3ZM757.3,806c-36.3,0-65.7-29.4-65.7-65.7s29.4-65.7,65.7-65.7,65.7,29.4,65.7,65.7-29.4,65.7-65.7,65.7Z"/>
        <g>
          <path class="cls-3" d="M531,769.9h-80.2c-8.3,0-16.2,7.3-15.8,15.9.4,8.6,7,15.9,15.8,15.9h80.2c8.3,0,16.2-7.3,15.8-15.9-.4-8.6-7-15.9-15.8-15.9Z"/>
          <path class="cls-3" d="M395.7,767.8c-1.4-1.2-3-2.2-4.8-2.7-19.5-6.1-37.2-17.8-50.3-33.5-1-1.1-1.8-2.2-2.7-3.3l-1.3-1.7-1.2-1.8c-.5-.7-1.1-1.4-1.8-2-.7-.6-1.4-1.2-2.2-1.6-1.6-1-3.5-1.6-5.4-2.1-3.8-.9-8.3-.6-11.9,1.6-3.7,2.2-6.3,5.7-7.3,9.8-.5,2.1-.5,4.2,0,6.4.2,1.1.5,2.2,1,3.3.5,1.1,1.1,2.1,1.8,3.1,15.4,21.5,37,38.5,61.5,48.4,3.4,1.4,7,2.6,10.5,3.8,2.2.6,4.6.8,6.9.6,2.3-.3,4.4-1,6.3-2.1,3.8-2.2,6.4-5.8,6.9-10.1.5-4.3-.4-8.4-2.3-11.8-.9-1.7-2.1-3.2-3.5-4.3Z"/>
          <path class="cls-3" d="M312.2,682.6c2.4-3,3.7-6.6,3.3-10.4-2-20.4,2-41.2,11.4-59.4.6-1.3,1.3-2.6,2-3.8.7-1.2,1.4-2.5,2.2-3.7,1-1.5,1.5-3.3,1.8-5.1.3-1.8.2-3.8-.1-5.8-.7-3.9-2.6-7.8-6.1-10.4-3.5-2.6-7.7-3.7-11.9-3-4.1.7-8.2,3.2-10.8,7.5-6.9,11.3-12.3,23.5-15.8,36.3l-.7,2.4-.6,2.4c-.4,1.6-.8,3.2-1.1,4.8-.6,3.3-1.2,6.5-1.6,9.8-.5,3.3-.7,6.6-.9,9.9-.1,1.6-.1,3.3-.2,4.9,0,1.6,0,3.3,0,4.9,0,1.9,0,3.7.2,5.6l.4,5.6c.5,4.7,2.9,9,6.4,11.6,3.4,2.7,7.8,3.7,11.9,2.5,4.2-1.1,7.6-3.6,10.1-6.7Z"/>
          <path class="cls-3" d="M458.2,538.2c-.4-8.6-7-15.9-15.8-15.9h-19.8s-2.5,0-2.5,0c-1.6,0-3.3,0-4.9.2-3.3.3-6.6.4-9.9.9-6.6.8-13.1,2.1-19.4,3.9-6.4,1.7-12.6,4-18.7,6.6-1.7.8-3.4,1.5-5.1,2.3l-5,2.5c-2.1,1.1-3.8,2.7-5.3,4.4-1.4,1.8-2.4,3.9-3,6-1.1,4.2-.3,8.6,2.3,12,2.7,3.4,6.3,5.6,10,6.7,1.9.5,3.7.7,5.6.6,1.9-.1,3.6-.7,5.3-1.6,4.5-2.4,9.2-4.4,14-6.2,4.8-1.7,9.7-3.1,14.7-4.2,5-1,10.1-1.8,15.2-2,1.3-.1,2.6-.1,3.8-.2h1.9c.6,0,1.2,0,2,0h18.7c8.3,0,16.2-7.3,15.8-15.9Z"/>
          <path class="cls-3" d="M587.9,522.3h-80.2c-8.3,0-16.2,7.3-15.8,15.9.4,8.6,7,15.9,15.8,15.9h80.2c8.3,0,16.2-7.3,15.8-15.9-.4-8.6-7-15.9-15.8-15.9Z"/>
          <path class="cls-3" d="M733.3,506.7c-.9-.2-1.9-.4-2.8-.4-.9,0-1.9,0-2.8,0-.9.1-1.8.3-2.7.6-.9.3-1.8.6-2.6,1.1-2.2,1.3-4.5,2.4-6.8,3.6-2.3,1-4.6,2.2-7,3.1-4.7,1.9-9.6,3.4-14.6,4.6-4.9,1.3-10,2-15.1,2.5-2.5.2-5.1.4-7.7.4-2.4,0-5.5,0-8.4,0h-9.9c-8.3,0-16.2,7.3-15.8,15.9.4,8.6,7,15.9,15.8,15.9h17.8s4.9-.2,4.9-.2l4.9-.4c1.6-.1,3.3-.3,4.9-.5,1.6-.2,3.3-.4,4.9-.7,6.5-1.1,13-2.6,19.3-4.5,6.3-2,12.5-4.3,18.5-7.2,1.7-.8,3.3-1.7,5-2.5,1.7-.8,3.3-1.8,4.9-2.7,1-.6,2-1.3,2.8-2,.8-.8,1.6-1.7,2.3-2.6s1.3-1.9,1.7-2.9c.5-1,.8-2.1,1.1-3.1,1-4.2.1-8.6-2.6-11.9-2.7-3.3-6.5-5.5-10.3-6.4Z"/>
          <path class="cls-3" d="M808.4,408.2c0-1.9-.2-3.7-.4-5.6l-.2-2.8-.3-2.8c-.3-2.3-1-4.6-2.2-6.5-1.2-2-2.6-3.7-4.5-4.9-3.6-2.6-7.9-3.5-12-2.2-4.1,1.3-7.6,3.9-9.9,6.9-1.1,1.5-2.1,3.2-2.6,5-.5,1.8-.7,3.6-.5,5.5,2.4,20.4-.7,41.3-9.6,59.7-1.3,2.6-2.5,5.1-4,7.6-.5.8-.8,1.6-1.1,2.5-.3.9-.5,1.8-.6,2.7-.1.9-.1,1.9,0,2.9,0,1,.2,1.9.4,2.9.4,1.9,1.1,3.9,2.2,5.6,1,1.7,2.4,3.3,4.2,4.6,1.8,1.2,3.7,2.1,5.8,2.6,2,.4,4.1.5,6.2,0,1-.2,2.1-.5,3.1-.9,1-.4,1.9-1,2.8-1.6,1.8-1.3,3.5-3,4.7-5.2,1.7-2.8,3.2-5.8,4.7-8.7.7-1.5,1.4-3,2.1-4.5l1-2.3.9-2.3c2.5-6.1,4.5-12.5,6.1-18.9,1.6-6.4,2.6-13,3.3-19.5.2-3.3.6-6.6.6-9.9,0-1.6.1-3.3,0-4.9v-4.9Z"/>
          <path class="cls-3" d="M776.2,352.5c1.8-1.2,3.4-2.6,4.6-4.3,1.2-1.7,2.1-3.6,2.5-5.7.4-2,.4-4.3,0-6.5-.5-2.2-1.5-4.4-3-6.4-16-21.1-38-37.5-62.8-46.7-3.5-1.2-7-2.5-10.6-3.4-2.2-.7-4.6-.8-6.9-.4-1.1.2-2.2.4-3.3.8-1.1.4-2.1.9-3,1.5-1.9,1.1-3.4,2.6-4.6,4.3-1.1,1.8-1.9,3.8-2.1,5.9-.4,4.3.7,8.5,2.6,11.8.5.8,1,1.6,1.7,2.3.6.7,1.3,1.4,2,2,1.4,1.2,3.1,2,4.9,2.6,19.6,5.5,37.6,16.8,51.2,32l2.8,3.3,2.7,3.4c1.1,1.4,2.5,2.6,4.1,3.5,1.7.9,3.4,1.6,5.4,2,3.9.7,8.2.4,11.9-1.9Z"/>
          <path class="cls-3" d="M653.4,290.2c-.4-8.6-6.9-15.9-15.8-16-23.4,0-46.9-.1-70.3-.2-3.3,0-6.6,0-9.9,0-8.3,0-16.2,7.3-15.9,15.9.4,8.6,6.9,15.9,15.8,16,23.4,0,46.9.1,70.3.2,3.3,0,6.6,0,9.9,0,8.3,0,16.2-7.3,15.9-15.9Z"/>
        </g>
      </g>
    </g>
    <g id="Novice_to_Expert" class="cls-6">
      <g>
        <path class="cls-1" d="M452.2,176.8c31.1-12.4,65.7,1,78.2,30.5,12.8,30.1-.5,66-27.9,78.7-40.1,18.6-96.4-6.2-90.1-61.4,1.9-16.4,11.9-36.7,39.7-47.8h0Z"/>
        <path class="cls-1" d="M364.5,664.1c-10.8,29.5-28.1,55.5-33.8,87.8,29.7-9,59.4-18,89.1-27-13.3-29.8-32.5-48.9-55.4-60.8h0ZM635.7,664.5c14.2,62.8,69.7,101,127.1,98.2,40.6-2,78.1-27.6,95.1-52.2,20.4-29.6,30.8-74.4,12.3-122-25.1-64.6-105.5-100.9-178.1-59.4,17.9,23.6,42.4,52.6,62.8,77.1,7,8.4,18.6,17.6,19.7,28.5.7,6.8-6.3,15.3-14.6,16.8-10.5,1.8-19.3-12.3-25.9-20.5-23.8-29.3-44.8-57.6-67.9-81.7-24.2,33.1-41.3,67-30.4,115.2h0ZM257,654.8c-56.8,22.8-86,83.8-72.9,141.6,16.6,73.5,91.5,113.9,156.7,94.2,26.2-7.9,52.9-27.4,67.7-48.9,16.6-24.1,23-50,20.3-87.5-26.4,6.8-65.8,17.5-93.2,25.8-21.7,6.6-38.9,14-45.1-2.4-4-10.6,4.8-22.7,8.7-32.2,13.5-33.4,23.9-63.5,35.4-94.5-24.1-3.8-46.9-8.5-77.7,3.8h0ZM525.1,535.4c5.1,34.2,5.7,66.1,9.2,99.5,21.8-36.7,44-80.6,61.9-121-25.2,6.2-45.9,13.5-71.1,21.5h0ZM531.3,433.7c-26.7-16.8-53.7-36.1-78.1-50.3-.3-.7-.6-1.3-1.5-.8-16,34.3-35.1,66.9-52,100.8,26,6.5,56.4,11.4,84.2,17.6,10,2.2,19.6,7.3,27.8,6.4,15.8-1.7,32.2-9.8,48.5-14.7s32.3-9.8,49.6-15c-8.7-13.1-18.6-24.1-28.1-35.8-23.5,8.7-35.4,1.4-50.5-8.1h0ZM564.9,390.3c12.9-4.7,29.1-6.1,46.2-10.3,16.2-4,33.8-11.7,45.4-8.8,12.7,3.1,20.6,20.4,15.1,33.6-6.6,15.7-36.9,20.2-57.1,27.1,14.8,23.6,37.9,46.9,55.9,70.5,54.4-33.4,117.7-27.8,158.3-6.1,28.9,15.4,57.2,41.5,71,75.8,24,59.9,14.4,114.4-13.2,155.5-18.6,27.7-50.8,53.8-98.8,64.4-80,17.8-164.4-31.7-185-122.6-13.4-59,8.5-104.5,42.9-147.3-2.1-5.5-6.6-6.4-8.6-12.2-6.6,3.3-9.2,13.6-13.3,21.3-27.9,52.1-55.3,109.4-82.4,162.9,5.6,24-2.8,50.9-30.6,53.6-10.3,1-17.3-6-26.6-10.4-7.5,2.3-15,4.6-22.6,6.8,6.5,38.2-1.3,73.2-18.1,102.8-19.7,34.6-51,65.6-107,78-64.9,14.4-133.5-18.2-166.2-72.8-40.4-67.5-22.9-143,18.2-187.8,16.7-18.3,43.1-37.3,73.6-45.7,29-7.9,56.8-5.6,83.9.5,10.8-12.8,12.4-30.5,22.5-43.8,8.1,2.6,16.3,4.8,24.4,7.4-4.7,16.4-12,31.4-17.7,47.3,31.1,19,59.9,42.4,77.8,86.1,7.5-2.3,15-4.6,22.6-6.8-2.7-44.6-6.1-89.6-10.1-134.9-33.1-9.5-75.6-14.5-112.8-22.5-12.3-2.7-26.6-5.1-35.1-10.3-10.5-6.3-24.4-22.9-26.1-41.4-1.3-13.9,12.1-36.7,20.1-51.7,16-30,34.2-63.9,51.1-95.6,11.8-22.1,21.9-60.9,63.8-53.8,11.4,1.9,25.2,13.6,36,21.1,33.6,23.5,69.5,47.8,102.5,70h0Z"/>
      </g>
    </g>
    <g id="Family" class="cls-6">
      <g>
        <g>
          <circle class="cls-3" cx="294.7" cy="252.7" r="83.7" transform="translate(-2.2 502.8) rotate(-80.7)"/>
          <path class="cls-3" d="M389.7,352.5h-190c-33.9,0-61.4,27.5-61.4,61.4v183.6c0,17,13.7,30.7,30.7,30.7h0c17,0,30.7-13.7,30.7-30.7v-152c0-3.1,2.5-5.6,5.6-5.6h0c3.1,0,5.6,2.5,5.6,5.6v445.7c0,21.3,17.2,38.5,38.5,38.5h0c21.3,0,38.5-17.2,38.5-38.5v-211.1c0-3.7,3-6.7,6.7-6.7h0c3.7,0,6.7,3,6.7,6.7v211.1c0,21.3,17.2,38.5,38.5,38.5h0c21.3,0,38.5-17.2,38.5-38.5v-445.7c0-3.1,2.5-5.6,5.6-5.6h0c3.1,0,5.6,2.5,5.6,5.6v152c0,17,13.7,30.7,30.7,30.7h0c17,0,30.7-13.7,30.7-30.7v-183.6c0-33.9-27.5-61.4-61.4-61.4h0Z"/>
        </g>
        <g>
          <circle class="cls-3" cx="751.3" cy="252.7" r="83.7" transform="translate(41.3 605.2) rotate(-45)"/>
          <path class="cls-3" d="M831.5,492.8c.1,0,0,0,.2-.1,12.8,25.9,37.4,75.9,52.7,107.2,7.5,15.2,25.9,21.4,41.1,14h0c15.2-7.5,21.5-25.9,14-41.1l-69.6-141.4-23.7-48.5c-9-18.5-27.8-30.2-48.4-30.2h-96.7c-20.6,0-39.4,11.7-48.4,30.2l-23.7,48.5-69.6,141.4c-7.5,15.2-1.2,33.6,14,41.1h0c15.2,7.5,33.6,1.3,41.1-13.9,15.4-31.2,40-81.3,52.8-107.2.1,0,0,0,.2.1l-62.8,199.6c-7.4,16.8,4.9,35.7,23.3,35.7h35.2c2.4,0,4.3,1.9,4.3,4.3v158.8c0,21.3,17.2,38.5,38.5,38.5h0c21.3,0,38.5-17.2,38.5-38.5v-159.9c0-1.8,1.4-3.2,3.2-3.2h3.5c1.8,0,3.2,1.4,3.2,3.2v159.9c0,21.3,17.2,38.5,38.5,38.5h0c21.3,0,38.5-17.2,38.5-38.5v-158.8c0-2.4,1.9-4.3,4.3-4.3h35.2c18.4,0,30.7-18.9,23.3-35.7l-62.8-199.6Z"/>
        </g>
        <g>
          <g>
            <circle class="cls-7" cx="516.5" cy="419.5" r="72.3" transform="translate(-9.8 826.6) rotate(-76.8)"/>
            <path class="cls-7" d="M670.7,630.1l-67-101.8c-9.3-14.1-25.1-22.6-41.9-22.6h-90.6c-16.8.1-32.5,8.6-41.8,22.7l-67.1,101.7c-7.5,11.4-4.4,26.8,7.1,34.3h0c11.4,7.5,26.7,4.3,34.2-7.1l35-53.3c1.7-2.5,5.6-1.4,5.6,1.7v289.3c0,17.4,12.7,32.9,30,34.5,19.8,1.9,36.5-13.7,36.5-33.1v-129.2c0-3.2,2.6-5.8,5.8-5.8s5.8,2.6,5.8,5.8v129.2c0,18.4,14.9,33.3,33.3,33.3h0c18.4,0,33.3-14.9,33.3-33.3v-290.7c0-3,3.9-4.2,5.6-1.7l35,53.3c7.5,11.4,22.8,14.6,34.2,7.1h0c11.4-7.5,14.6-22.8,7.1-34.2Z"/>
          </g>
          <g>
            <circle class="cls-2" cx="516.5" cy="419.5" r="72.3" transform="translate(-9.8 826.6) rotate(-76.8)"/>
            <path class="cls-2" d="M670.7,630.1l-67-101.8c-9.3-14.1-25.1-22.6-41.9-22.6h-90.6c-16.8.1-32.5,8.6-41.8,22.7l-67.1,101.7c-7.5,11.4-4.4,26.8,7.1,34.3h0c11.4,7.5,26.7,4.3,34.2-7.1l35-53.3c1.7-2.5,5.6-1.4,5.6,1.7v289.3c0,17.4,12.7,32.9,30,34.5,19.8,1.9,36.5-13.7,36.5-33.1v-129.2c0-3.2,2.6-5.8,5.8-5.8s5.8,2.6,5.8,5.8v129.2c0,18.4,14.9,33.3,33.3,33.3h0c18.4,0,33.3-14.9,33.3-33.3v-290.7c0-3,3.9-4.2,5.6-1.7l35,53.3c7.5,11.4,22.8,14.6,34.2,7.1h0c11.4-7.5,14.6-22.8,7.1-34.2Z"/>
          </g>
        </g>
      </g>
    </g>
    <g id="Trail_Maintenance">
      <g>
        <path class="cls-3" d="M539.2,894c-124.9,0-249.9,0-374.8,0-3.2,0-6.4-.1-9.5-.5-14.8-1.7-25.3-19.7-17.4-33.8,3.4-6.1,6.8-12.1,10.3-18.1,38.1-66.2,76.2-132.4,114.2-198.7,44.9-78.2,89.6-156.4,134.4-234.7,33.4-58.3,66.7-116.7,100.1-175,6.7-11.7,13.4-23.5,20.1-35.2,1-1.7,2.1-3.4,3.2-5.1,9.3-14.3,30.8-13.4,39.2.7,4.2,7,8.1,14.1,12.2,21.1,33.3,58.1,66.7,116.2,100,174.2,19.9,34.6,39.7,69.2,59.6,103.8,22.8,39.8,45.6,79.7,68.4,119.5,28,48.8,56.1,97.5,84.1,146.3,17.2,29.9,34.3,59.8,51.5,89.7,2,3.5,4,6.9,6.1,10.4,9.4,16.2-4.3,34.4-18.1,35.1-2.6.1-5.2.3-7.8.3-125.3,0-250.6,0-375.9,0h0ZM539,235.6c-118.7,207-236.9,413.3-355.1,619.7,3.9.8,707.5.7,710.7-.1-118.4-206.3-236.8-412.6-355.6-619.6Z"/>
        <path class="cls-3" d="M692.8,761.9c-27.3-18.3-54-36.2-81.1-54.3-.6.2-1.5.5-2.3.9-8.8,3.4-17-.5-19.8-9.5,0-.2-.2-.4-.2-.7-.2-4.4-3-6.7-6.4-8.9-16.1-10.5-32-21.1-48-31.7-.6-.4-1.2-.7-2-1.3-1.9,3.4-3.8,6.6-5.9,10.1.8.8,1.6,1.7,2.6,2.6,16,15.1,32.1,30.1,48.2,45.2,1.2,1.1,2.4,2.3,3.5,3.5,2.3,2.3,3.8,5,4.4,8.3,1.8,9.8,3.6,19.7,5.5,29.5,3.5,18.4,7,36.7,10.4,55.1.8,4,1.5,8.1.3,12.2-2.4,7.8-9.6,13.8-17.8,13.7-6.9,0-14-3.2-17.4-11.6-1.1-2.7-1.7-5.6-2.2-8.5-4.5-24.2-9-48.3-13.4-72.5-.5-2.5-1.5-4.5-3.5-6.3-17-15.6-34-31.2-51-46.8-.6-.5-1.2-1-2.2-1.8-.5,3.2-.9,5.9-1.2,8.7-2.2,17-4.4,34.1-6.6,51.1-.5,3.7-1.6,7.1-3.5,10.3-12.6,21.5-25.1,43.1-37.6,64.7-1.1,1.8-2.1,3.7-3.4,5.3-4.5,5.8-10.6,8.2-17.8,7-7.1-1.2-11.7-5.5-14.1-12.3-2.1-5.9-1-11.3,2-16.6,4.3-7.7,8.6-15.4,13-23.1,7.5-13.2,14.9-26.5,22.5-39.6,2.7-4.7,2.9-9.9,3.6-15,1.6-12.2,3.2-24.5,4.7-36.7,1.3-9.8,2.6-19.6,3.7-29.4.3-2.3.2-4.7,0-7.1-.5-5.7,1-10.9,3.4-16,3.3-6.9,6.6-13.8,10-20.8-5.4-3.7-10.8-7.4-16.4-11.3-.7.9-1.3,1.7-1.8,2.6-3.7,5.4-10.3,8-16.3,6.4-6.5-1.7-11.2-7.1-11.5-13.6-.1-2.7.7-5.6,1.5-8.2,4.1-12.4,8.3-24.7,12.5-37.1,1.8-5.5,3.6-10.9,5.4-16.4,2-6.4,6.1-10,12.8-11,13.7-2,27.4-4.1,41.2-6.2,9.9-1.5,19.8-2.7,29.7-4.5,5.9-1,11.2,0,16.3,2.8,5.2,2.9,10.4,6,15.5,9.1,4.1,2.5,8.1,5.2,12.3,7.6,6.7,3.8,10.4,9.6,12.2,17,3.8,15.7,7.9,31.2,11.7,46.9,6.8,27.9,13.7,55.7,20.2,83.7,1,4.4,3.1,6.8,6.6,9.2,25.3,16.8,50.5,33.8,75.7,50.7.7.4,1.4.8,2.3,1.4,1.7-3.9,3.5-7.6,5.1-11.4,2.2-5.2,4.3-10.4,6.2-15.8,2.4-6.7,6.9-11.4,13.6-13.9,5.2-1.9,10.3-3.8,15.8-5.8,31.4,44.1,62.5,87.9,93.6,131.6-.1.3-.1.4-.2.5,0,0-.1.2-.2.2-.7,0-1.4.2-2.1.2-65.9,0-131.8,0-198.2,0,.5-1.2.7-1.8,1-2.4,6.8-12.3,13.6-24.5,20.3-36.8,3-5.5,6.9-10,11.8-13.8,6.3-4.8,12.3-9.9,18.4-14.9,1.5-1.3,2.9-2.7,4.9-4.5ZM582.8,669.4c-5.9-24.9-11.6-49-17.3-73.2-.3,0-.5,0-.8,0-7.9,15-15.9,30-24,45.4,13.9,9.2,27.7,18.3,42.1,27.8ZM480.6,604.4c7.8-16.1,15.5-31.9,23.3-47.9-.9,0-1.2-.1-1.5,0-8.8,1.3-17.6,2.8-26.5,3.9-2.6.3-3.8,1.4-4.6,3.9-2.7,8.6-5.5,17.2-8.3,25.8-.2.8-.4,1.6-.6,2.5,6.1,4,12.1,7.8,18.2,11.9Z"/>
        <path class="cls-3" d="M589.2,458.8c17.8-.2,35.7,14.5,35.7,36.2,0,21.8-17.6,36.9-36.5,36.7-19.2-.2-35.1-15.7-35.1-36.3,0-22.5,18.2-37.1,36-36.6Z"/>
      </g>
    </g>
    <g id="Scenic" class="cls-6">
      <path class="cls-4" d="M232.2,330.2c-4.3.6-11.4,1.7-21.3,3.2-26.6,4.2-40.3,20.6-41.4,49.2-1.2,33.2,18.8,52.1,48.7,52.2,155.5.3,245.3.3,269.3-.1,6.7-.1,13.8-2.5,21.3-7.2,24.6-15.6,27.2-63.9,4.3-82.5-14.8-12-33.4-10.4-56.2-11.2-5.4-.2-10.4-3.2-13.3-8.1-14.3-23.9-33.4-40.3-57.4-49.1-24.2-8.9-49.4-11.2-75.6-6.7-23.1,3.9-43.3,16.7-60.5,38.4-.7.8-1.2,1.7-1.7,2.6-3.6,7-7.4,12.6-11.3,16.7-1.3,1.4-3,2.3-4.9,2.5"/>
      <path class="cls-4" d="M800.7,651c0,.2.3.3,1,.2.4,0,.7-.3,1-.7,6-8.1,11.7-12.9,17-14.6,22.1-6.6,36.9-21.7,44.5-45.1.4-1.1.5-2.2.6-3.3,2-27.1.9-53.3-3.4-78.7-1.1-6.1-3.2-17.8-6.4-35.2-2.2-11.9-4.7-22.6-7.6-32.2-6-20.1-17.3-47-30.7-58.8-18.5-16.4-37.2-17.3-55.8-2.6-7,5.5-10.4,12-15.8,18.1-3.8,4.3-7.1,9.4-10.1,15.1-24.1,46.8-39.8,91-40.4,140.2-.2,18.7,6.1,45.1,19.9,56.7,7.6,6.5,18.2,12.4,31.6,17.7,4.7,1.9,8.3,5.4,10.9,10.7.4.9.6,1.9.4,2.8l-2.8,21c-.5,3.8-3.5,6.6-7.1,6.5-20-.4-40.8,1.2-62.3,4.8-3.4.6-7.5,0-11.4.6-39.1,6.9-74.6,13.7-106.4,20.3-28.6,5.9-62.8,14.8-102.3,26.5-33.5,10-63.3,19.5-89.5,28.7-30.5,10.7-65.8,24.1-105.9,40.1-44.3,17.7-87,37-128.2,57.9-3.4,1.7-6.7,4.6-9.8,8.8-.7,1-1.1,2.2-1.1,3.4-.3,33.6,0,54,.9,61.4,1.5,12.6,7.1,22.1,16.9,28.5,5,3.3,14.2,4.9,27.6,4.8h59c155.7,0,304.3-.1,446-.6,79.2-.2,161.3,1.4,234.4.8.9,0,1.9-.1,2.8-.4,14.8-4.4,24.5-14.7,29.1-30.7.3-1,.4-2,.4-3.1l.7-247.6c0-2.3-1.7-4.2-3.8-4.2h-138.9c-4,0-7.1-3.8-6.6-8.1.8-6.6,1.3-9.9,1.4-10.1,0-.1.2,0,.2,0"/>
      <path class="cls-4" d="M135.3,789c1.7-.3,3.6-1.1,6-2.3,13.1-6.8,28.9-14,47.2-21.5,29.5-12.1,59.6-24,90.3-35.8,34.1-13.1,84.8-30.2,152.1-51.4,27.1-8.5,76.9-20.8,149.5-36.8,8.4-1.9,15.5-1.5,22.3-3.8,4.4-1.5,9.9-2.7,16.4-3.6,15.2-2.1,31.7-4.7,49.5-7.9,2.8-.5,4.2-3.9,2.7-6.5l-25-42.1c-2-3.3-5.9-4.6-9.3-3.1-34.4,15.4-70.6,27.5-107.7,33.9-12.1,2.1-22.8,3.6-32.1,4.8-14.5,1.7-32.3,1.1-53.4-2-39.9-5.7-74.1-12.2-102.6-19.3-11.3-2.8-44.4-8-99.3-15.6-19.7-2.7-42.5-3.1-59.7-3.3-34-.4-47.3,13-50.1,49.7,0,1.2-.4,55.6-.7,163.1,0,2.2,1.9,3.9,3.9,3.5"/>
      <path class="cls-4" d="M906.1,637.5c2.9-.7,5.2-1.9,6.8-3.4,11.6-10.8,27.6-20.4,35-35.2,6.6-13.1-1.7-22.3-14.2-23-10.7-.6-19-.5-24.8.3-3.3.4-5.7,3.4-5.7,6.9v52c0,1.6,1.4,2.8,2.8,2.4"/>
      <path class="cls-4" d="M234.8,323.5c3-4.3,5.9-9,8.7-14.1,15.1-27.9,51.1-44.6,79.4-47.3,15.4-1.5,32.3,0,50.7,4.7,30.4,7.7,54.4,26,71.6,52.5,3.4,5.3,5.7,8.1,6.9,8.4,1,.3,2,.7,3,1,.3.1,3.6.4,10,.8,3,.2,6.2,0,9.7-.3,8.7-1.1,17.4,0,26.1,3.2,36.8,13.3,44.2,66.1,17.9,93.3-7.4,7.7-16.2,12.5-26.6,14.6-1.7.3-11.7.5-30.2.5-130.4,0-210.9-.1-241.7-.1-21.8,0-39.5-5.6-50.1-27.7-4.3-9-6.3-18.4-6.1-28,.7-29.3,13.5-47.9,38.5-56,4.4-1.4,9.3-2.2,14.6-2.4,10-.3,15-.6,15.2-.7.9-.7,1.7-1.5,2.3-2.4M232.2,330.2c-4.3.6-11.4,1.7-21.3,3.2-26.6,4.2-40.3,20.6-41.4,49.2-1.2,33.2,18.8,52.1,48.7,52.2,155.5.3,245.3.3,269.3-.1,6.7-.1,13.8-2.5,21.3-7.2,24.6-15.6,27.2-63.9,4.3-82.5-14.8-12-33.4-10.4-56.2-11.2-5.4-.2-10.4-3.2-13.3-8.1-14.3-23.9-33.4-40.3-57.4-49.1-24.2-8.9-49.4-11.2-75.6-6.7-23.1,3.9-43.3,16.7-60.5,38.4-.7.8-1.2,1.7-1.7,2.6-3.6,7-7.4,12.6-11.3,16.7-1.3,1.4-3,2.3-4.9,2.5h0Z"/>
      <path class="cls-4" d="M237.1,327.6c3.9-4.1,7.7-9.7,11.3-16.7.5-.9,1-1.8,1.7-2.6,17.2-21.7,37.4-34.4,60.5-38.4,26.2-4.5,51.3-2.3,75.6,6.7,23.9,8.8,43.1,25.2,57.4,49.1,2.9,4.9,7.9,7.9,13.3,8.1,22.8.8,41.4-.8,56.2,11.2,22.9,18.6,20.4,66.9-4.3,82.5-7.4,4.7-14.5,7.1-21.3,7.2-24,.4-113.8.4-269.3.1-29.9,0-49.9-19-48.7-52.2,1.1-28.7,14.8-45.1,41.4-49.2,9.9-1.5,17-2.6,21.3-3.2,1.8-.2,3.5-1.1,4.9-2.5h0Z"/>
      <path class="cls-4" d="M954.1,665.3v253.1c0,.8,0,1.5-.3,2.2-6.6,27.4-23.9,41-52.1,40.9-83.7-.2-328.6-.3-734.7-.1-10.7,0-25.6-7.1-32.5-18.2-4.8-7.8-7.4-12.2-7.5-13.3-2.9-16.9-1.6-38-1.3-76.7,0-1,.4-2,1-2.8,1.6-1.9,5.9-1.4,8.9-3.7,5-3.7,8.6-6.2,10.9-7.3,109.1-53.1,222-96.4,338.6-129.8,26.6-7.6,56.1-15,88.6-22,35.6-7.7,65.5-13.2,89.7-16.4,28-3.7,43.4-5.8,46.1-6.2,12.5-2.1,22-1.4,36.4-2.1,3.8-.2,6.8-3.5,6.8-7.6v-11.2c0-4.2-2.4-7.9-6-9.4-13.4-5.7-25.1-10.4-34.8-20.2-21-21.2-25.2-47.9-22.3-78.6,2.7-28.8,12.1-61.8,28.1-99.1,10.4-24.1,23.1-43.8,38.3-59.1,11.4-11.4,25.1-15.5,41.1-12.1,20.1,4.3,38.2,29.8,46.2,49.7,5.9,14.7,10.4,28.9,13.7,42.6,7.7,32.4,12.2,58,13.5,76.7.7,10.4,1.2,21.3,1.3,32.6.3,31.2-11.7,53.7-36,67.6-7.6,4.4-15.7,6.8-23.8,11.9-.5.3-1,.8-1.3,1.4l-6,10.7c-1.2,2.1.2,4.7,2.5,4.7h145.1c1,0,1.8.9,1.8,1.9M800.7,651c0,.2.3.3,1,.2.4,0,.7-.3,1-.7,6-8.1,11.7-12.9,17-14.6,22.1-6.6,36.9-21.7,44.5-45.1.4-1.1.5-2.2.6-3.3,2-27.1.9-53.3-3.4-78.7-1.1-6.1-3.2-17.8-6.4-35.2-2.2-11.9-4.7-22.6-7.6-32.2-6-20.1-17.3-47-30.7-58.8-18.5-16.4-37.2-17.3-55.8-2.6-7,5.5-10.4,12-15.8,18.1-3.8,4.3-7.1,9.4-10.1,15.1-24.1,46.8-39.8,91-40.4,140.2-.2,18.7,6.1,45.1,19.9,56.7,7.6,6.5,18.2,12.4,31.6,17.7,4.7,1.9,8.3,5.4,10.9,10.7.4.9.6,1.9.4,2.8l-2.8,21c-.5,3.8-3.5,6.6-7.1,6.5-20-.4-40.8,1.2-62.3,4.8-3.4.6-7.5,0-11.4.6-39.1,6.9-74.6,13.7-106.4,20.3-28.6,5.9-62.8,14.8-102.3,26.5-33.5,10-63.3,19.5-89.5,28.7-30.5,10.7-65.8,24.1-105.9,40.1-44.3,17.7-87,37-128.2,57.9-3.4,1.7-6.7,4.6-9.8,8.8-.7,1-1.1,2.2-1.1,3.4-.3,33.6,0,54,.9,61.4,1.5,12.6,7.1,22.1,16.9,28.5,5,3.3,14.2,4.9,27.6,4.8h59c155.7,0,304.3-.1,446-.6,79.2-.2,161.3,1.4,234.4.8.9,0,1.9-.1,2.8-.4,14.8-4.4,24.5-14.7,29.1-30.7.3-1,.4-2,.4-3.1l.7-247.6c0-2.3-1.7-4.2-3.8-4.2h-138.9c-4,0-7.1-3.8-6.6-8.1.8-6.6,1.3-9.9,1.4-10.1,0-.1.2,0,.2,0h0Z"/>
      <path class="cls-4" d="M800.5,651c-.1.2-.6,3.5-1.4,10.1-.5,4.3,2.5,8.1,6.6,8.1h138.9c2.1,0,3.9,1.9,3.8,4.2l-.7,247.6c0,1-.1,2.1-.4,3.1-4.5,16.1-14.2,26.3-29.1,30.7-.9.3-1.9.4-2.8.4-73.1.6-155.2-1.1-234.4-.8-141.6.4-290.3.6-446,.6h-59c-13.4,0-22.6-1.6-27.6-4.8-9.8-6.4-15.4-15.9-16.9-28.5-.9-7.4-1.2-27.8-.9-61.4,0-1.2.4-2.4,1.1-3.4,3.1-4.1,6.3-7,9.8-8.8,41.2-20.8,84-40.1,128.2-57.9,40-16,75.3-29.4,105.9-40.1,26.1-9.2,56-18.7,89.5-28.7,39.6-11.7,73.7-20.6,102.3-26.5,31.8-6.6,67.3-13.4,106.4-20.3,3.9-.7,8,0,11.4-.6,21.5-3.6,42.3-5.2,62.3-4.8,3.5,0,6.6-2.7,7.1-6.5l2.8-21c.1-1,0-2-.4-2.8-2.6-5.3-6.3-8.9-10.9-10.7-13.4-5.3-23.9-11.2-31.6-17.7-13.8-11.6-20.1-38-19.9-56.7.6-49.2,16.3-93.4,40.4-140.2,3-5.7,6.3-10.8,10.1-15.1,5.3-6.1,8.8-12.6,15.8-18.1,18.7-14.7,37.3-13.8,55.8,2.6,13.3,11.8,24.6,38.7,30.7,58.8,2.9,9.6,5.4,20.4,7.6,32.2,3.2,17.3,5.3,29,6.4,35.2,4.3,25.4,5.5,51.6,3.4,78.7,0,1.1-.3,2.3-.6,3.3-7.6,23.5-22.4,38.5-44.5,45.1-5.4,1.6-11.1,6.5-17,14.6-.3.4-.6.6-1,.7-.7.1-1,0-1-.2,0-.1-.1-.2-.2,0h0Z"/>
      <path class="cls-4" d="M127.9,797.4c-.9,0-1.7-.7-1.7-1.6,0-101.5,0-153.5,0-156-.5-21.3,1.2-36.1,5.2-44.5,6.7-14.3,17.6-23.5,32.4-27.6,1-.3,2-.4,3-.4,23.4-.2,38.7-.1,45.7.4,33,2.6,64.8,6.6,95.3,12.2,35.6,6.5,69.5,13.3,102,20.3,6.5,1.4,15.4,1.3,23.5,2.6,25.3,3.9,49.9,7.1,76.6,2.9,36.1-5.6,67-13.4,92.5-23.4,12.4-4.8,25.2-9.8,38.6-14.8,2.2-.9,4.7,0,6,2.2l35.1,59.1c.5.8,0,1.9-.9,2-8.3.9-14.2,1.5-17.8,2-101.1,14.2-206.1,40.1-314.9,77.7-38.2,13.2-66.4,23.3-84.4,30.4-23.1,9-45.3,17.8-66.7,26.3-20,7.9-41.9,17.6-65.7,29-1.6.8-2.8,1.2-3.8,1.2M135.3,789c1.7-.3,3.6-1.1,6-2.3,13.1-6.8,28.9-14,47.2-21.5,29.5-12.1,59.6-24,90.3-35.8,34.1-13.1,84.8-30.2,152.1-51.4,27.1-8.5,76.9-20.8,149.5-36.8,8.4-1.9,15.5-1.5,22.3-3.8,4.4-1.5,9.9-2.7,16.4-3.6,15.2-2.1,31.7-4.7,49.5-7.9,2.8-.5,4.2-3.9,2.7-6.5l-25-42.1c-2-3.3-5.9-4.6-9.3-3.1-34.4,15.4-70.6,27.5-107.7,33.9-12.1,2.1-22.8,3.6-32.1,4.8-14.5,1.7-32.3,1.1-53.4-2-39.9-5.7-74.1-12.2-102.6-19.3-11.3-2.8-44.4-8-99.3-15.6-19.7-2.7-42.5-3.1-59.7-3.3-34-.4-47.3,13-50.1,49.7,0,1.2-.4,55.6-.7,163.1,0,2.2,1.9,3.9,3.9,3.5h0Z"/>
      <path class="cls-4" d="M900.1,642.4l-2.4-70.9c0-.1,0-.2,0-.3,1.2-2.2,2.9-2.7,5.2-1.5.8.4,1.6.6,2.5.5,12.2-.8,46.7-3.6,49.1,15.5,1.2,10.2-2.1,19.2-10,26.8-9.2,9-19.6,15.9-29,24.5-3.1,2.8-7.3,5.4-12.4,7.5-1.4.6-3-.5-3-2.2M906.1,637.5c2.9-.7,5.2-1.9,6.8-3.4,11.6-10.8,27.6-20.4,35-35.2,6.6-13.1-1.7-22.3-14.2-23-10.7-.6-19-.5-24.8.3-3.3.4-5.7,3.4-5.7,6.9v52c0,1.6,1.4,2.8,2.8,2.4h0Z"/>
      <path class="cls-4" d="M135.3,789c-2,.4-3.9-1.2-3.9-3.5.4-107.5.6-161.9.7-163.1,2.8-36.6,16.1-50.1,50.1-49.7,17.3.2,40,.6,59.7,3.3,54.9,7.5,88,12.7,99.3,15.6,28.5,7.1,62.7,13.6,102.6,19.3,21.1,3.1,38.9,3.7,53.4,2,9.3-1.1,20-2.7,32.1-4.8,37.1-6.3,73.2-18.4,107.7-33.9,3.4-1.5,7.3-.2,9.3,3.1l25,42.1c1.5,2.6.1,6-2.7,6.5-17.8,3.2-34.3,5.8-49.5,7.9-6.5.9-12,2.1-16.4,3.6-6.7,2.3-13.8,1.9-22.3,3.8-72.6,16-122.4,28.3-149.5,36.8-67.3,21.2-118,38.3-152.1,51.4-30.6,11.8-60.7,23.7-90.3,35.8-18.3,7.5-34.1,14.7-47.2,21.5-2.3,1.2-4.3,2-6,2.3h0Z"/>
      <path class="cls-4" d="M906.1,637.5c-1.4.4-2.8-.8-2.8-2.4v-52c0-3.5,2.4-6.5,5.7-6.9,5.9-.8,14.1-.9,24.8-.3,12.4.7,20.8,9.9,14.2,23-7.4,14.8-23.5,24.4-35,35.2-1.6,1.5-3.9,2.6-6.8,3.4h0Z"/>
    </g>
  </g>
</svg>